<svg width="95" height="105" viewBox="0 0 95 105" fill="none" xmlns="http://www.w3.org/2000/svg">
<path fill-rule="evenodd" clip-rule="evenodd" d="M43.8438 1.43225C45.8991 0.663247 48.1447 0.562994 50.2604 1.14579L51.1562 1.43225L87.6146 15.1041C89.4632 15.7973 91.0767 17.0015 92.2672 18.5765C93.4576 20.1515 94.176 22.0324 94.3385 24L94.375 24.8593V52.7916C94.3748 61.2313 92.096 69.5144 87.7792 76.7666C83.4624 84.0187 77.2677 89.9709 69.849 93.9947L68.4635 94.7187L50.9948 103.453C50.0329 103.933 48.9823 104.21 47.9087 104.265C46.835 104.321 45.7615 104.154 44.7552 103.776L44.0052 103.453L26.5365 94.7187C18.9876 90.9442 12.5978 85.2015 8.04169 78.0969C3.48559 70.9923 0.93219 62.7894 0.651042 54.3541L0.625 52.7916V24.8593C0.62503 22.886 1.18556 20.9534 2.24132 19.2863C3.29709 17.6192 4.80466 16.2862 6.58854 15.4427L7.38542 15.1041L43.8438 1.43225ZM65.3802 34.9427L41.4323 58.8906L32.224 49.6822C31.2467 48.7056 29.9214 48.1573 28.5398 48.1577C27.1582 48.1582 25.8334 48.7076 24.8568 49.6848C23.8802 50.6621 23.3318 51.9874 23.3323 53.369C23.3328 54.7506 23.8821 56.0754 24.8594 57.052L37.3802 69.5729C37.9122 70.1051 38.5439 70.5274 39.2392 70.8155C39.9345 71.1036 40.6797 71.2518 41.4323 71.2518C42.1849 71.2518 42.9301 71.1036 43.6254 70.8155C44.3206 70.5274 44.9523 70.1051 45.4844 69.5729L72.7448 42.3072C73.2422 41.8268 73.639 41.2521 73.912 40.6166C74.185 39.9812 74.3286 39.2978 74.3346 38.6062C74.3406 37.9146 74.2089 37.2288 73.947 36.5887C73.6851 35.9487 73.2984 35.3671 72.8093 34.8781C72.3203 34.3891 71.7388 34.0023 71.0987 33.7405C70.4586 33.4786 69.7728 33.3468 69.0812 33.3528C68.3897 33.3588 67.7062 33.5025 67.0708 33.7755C66.4354 34.0484 65.8607 34.4452 65.3802 34.9427Z" fill="#4132B5"/>
</svg>
