<svg width="82" height="94" viewBox="0 0 82 94" fill="none" xmlns="http://www.w3.org/2000/svg">
<path d="M10.9375 93.75H4.6875C3.4443 93.75 2.25201 93.2561 1.37294 92.3771C0.49386 91.498 0 90.3057 0 89.0625V60.9375C0 59.6943 0.49386 58.502 1.37294 57.6229C2.25201 56.7439 3.4443 56.25 4.6875 56.25H10.9375C12.1807 56.25 13.373 56.7439 14.2521 57.6229C15.1311 58.502 15.625 59.6943 15.625 60.9375V89.0625C15.625 90.3057 15.1311 91.498 14.2521 92.3771C13.373 93.2561 12.1807 93.75 10.9375 93.75ZM54.6875 93.75H48.4375C47.1943 93.75 46.002 93.2561 45.1229 92.3771C44.2439 91.498 43.75 90.3057 43.75 89.0625V42.1875C43.75 40.9443 44.2439 39.752 45.1229 38.8729C46.002 37.9939 47.1943 37.5 48.4375 37.5H54.6875C55.9307 37.5 57.123 37.9939 58.0021 38.8729C58.8811 39.752 59.375 40.9443 59.375 42.1875V89.0625C59.375 90.3057 58.8811 91.498 58.0021 92.3771C57.123 93.2561 55.9307 93.75 54.6875 93.75ZM76.5625 93.75H70.3125C69.0693 93.75 67.877 93.2561 66.9979 92.3771C66.1189 91.498 65.625 90.3057 65.625 89.0625V20.3125C65.625 19.0693 66.1189 17.877 66.9979 16.9979C67.877 16.1189 69.0693 15.625 70.3125 15.625H76.5625C77.8057 15.625 78.998 16.1189 79.8771 16.9979C80.7561 17.877 81.25 19.0693 81.25 20.3125V89.0625C81.25 90.3057 80.7561 91.498 79.8771 92.3771C78.998 93.2561 77.8057 93.75 76.5625 93.75ZM32.8125 93.75H26.5625C25.3193 93.75 24.127 93.2561 23.2479 92.3771C22.3689 91.498 21.875 90.3057 21.875 89.0625V4.6875C21.875 3.4443 22.3689 2.25201 23.2479 1.37294C24.127 0.49386 25.3193 0 26.5625 0H32.8125C34.0557 0 35.248 0.49386 36.1271 1.37294C37.0061 2.25201 37.5 3.4443 37.5 4.6875V89.0625C37.5 90.3057 37.0061 91.498 36.1271 92.3771C35.248 93.2561 34.0557 93.75 32.8125 93.75Z" fill="#4132B5"/>
</svg>
