<svg width="317" height="620" viewBox="0 0 317 620" fill="none" xmlns="http://www.w3.org/2000/svg">
<path d="M38.369 539.68V579.008L8.63303 579.967L9.87201 539.68H38.369Z" fill="#FFB6B6"/>
<path d="M44.2536 561.563C44.6555 561.563 45.0489 561.614 45.4311 561.723C50.7977 563.256 81.862 590.991 91.2547 599.454C92.4154 600.5 93.0318 601.993 92.9465 603.55C92.8622 605.102 92.0903 606.512 90.8304 607.418C83.7065 612.549 69.113 620.665 51.4057 617.385C43.2607 615.876 35.0408 614.927 27.7885 614.091C12.2629 612.298 7.62939e-06 610.882 7.62939e-06 605.386C7.62939e-06 596.061 2.56479 571.484 5.78345 570.452C6.07572 570.363 6.41389 570.588 6.80357 571.133C11.728 578.027 28.6428 574.359 29.3604 574.2L29.5487 574.158L29.6554 573.998C29.7435 573.866 38.0252 561.563 44.2536 561.563V561.563V561.563Z" fill="#2F2E41"/>
<path d="M94.0041 539.68V579.008L64.2681 579.967L65.5071 539.68H94.0041Z" fill="#FFB6B6"/>
<path d="M105.994 258.147L121.822 270.137L124.699 405.388L97.841 553.109L62.8293 554.548L61.87 413.542L16.7864 285.005L25.8991 254.79L105.994 258.147Z" fill="#2F2E41"/>
<path d="M32.134 281.168L16.7864 285.005L5.75534 553.109L45.5632 549.751L71.9419 360.304L32.134 281.168Z" fill="#2F2E41"/>
<path d="M115.234 619.096C128.88 619.096 139.967 613.064 145.888 608.998C147.678 607.769 148.785 605.818 148.926 603.646C149.07 601.454 148.215 599.356 146.583 597.887C131.886 584.666 106.463 562.267 101.33 560.801C94.6786 558.895 85.7514 571.616 84.603 573.303C82.7445 573.683 67.5167 576.593 63.2199 570.575C62.4003 569.429 61.6312 569.377 61.1263 569.538C56.5344 571.01 54.6759 600.571 54.6759 605.387C54.6759 611.738 66.6877 613.124 83.3131 615.043C90.5503 615.879 98.7534 616.826 106.867 618.328C109.742 618.861 112.539 619.096 115.234 619.096H115.234V619.096Z" fill="#2F2E41"/>
<path d="M227.411 83.1613C232.492 71.9364 230.58 60.1845 223.141 56.9132C215.702 53.642 205.555 60.0898 200.474 71.3195C198.38 75.7771 197.428 80.6765 197.699 85.6079L176.795 133.444L200.371 142.907L218.476 94.7451C222.38 91.6487 225.444 87.6766 227.411 83.1613L227.411 83.1613Z" fill="#FFB6B6"/>
<path d="M82.9438 103.472L82.9437 103.472C70.1993 115.49 70.9976 135.993 84.6377 146.983L151.434 200.802C158.724 206.676 169.543 204.601 174.142 196.446C191.696 168.028 195.005 166.469 205.207 137.343L176.436 127.279L160.214 147.592L124.797 105.81C114.093 93.1829 94.9876 92.1157 82.9438 103.472C82.9438 103.472 82.9438 103.472 82.9438 103.472V103.472Z" fill="white"/>
<path d="M73.1065 82.9652L62.181 104.976L103.475 124.919L102.969 89.6333L73.1065 82.9652Z" fill="#FFB6B6"/>
<path d="M103.327 99.6157C82.8057 99.6157 66.17 82.98 66.17 62.4588C66.17 41.9377 82.8057 25.302 103.327 25.302C123.848 25.302 140.484 41.9377 140.484 62.4588C140.484 82.98 123.848 99.6157 103.327 99.6157Z" fill="#FFB6B6"/>
<path d="M103.578 116.338L65.4793 93.8252L65.4792 93.8252C37.5359 113.422 14.2662 118.006 13.5259 152.128L18.6758 233.522L18.374 268.576C18.2473 283.292 30.1414 295.289 44.8576 295.289H99.2614C113.659 295.289 124.385 282.006 121.354 267.931L111.083 220.245L122.051 127.306L103.578 116.338L103.578 116.338V116.338V116.338Z" fill="white"/>
<path d="M316.01 69.6416C316.01 67.695 314.432 66.1167 312.485 66.1167H272.777C270.83 66.1167 269.252 67.6949 269.252 69.6416V70.1222L171.318 75.8509C171.035 74.737 170.034 73.9097 168.832 73.9097H158.418V66.303C158.418 64.6061 157.042 63.2304 155.345 63.2304H153.223V56.5147C153.223 55.4415 152.353 54.5715 151.28 54.5715H145.352C144.279 54.5715 143.409 55.4415 143.409 56.5147V63.2304H141.459C141.598 62.9593 141.678 62.6687 141.678 62.3645C141.678 60.9299 139.998 59.7669 137.925 59.7669C135.853 59.7669 134.173 60.9299 134.173 62.3645C134.173 62.7393 134.29 63.0947 134.496 63.4165C133.302 63.8379 132.441 64.9647 132.441 66.303V105.761C132.441 107.458 133.817 108.834 135.514 108.834H155.345C157.042 108.834 158.418 107.458 158.418 105.761V100.464H168.832C170.172 100.464 171.26 99.4357 171.382 98.1273L269.413 116.178C269.862 117.609 271.198 118.647 272.777 118.647H312.485C314.432 118.647 316.01 117.069 316.01 115.123C316.48 99.0243 315.438 83.7303 316.01 69.6416L316.01 69.6416V69.6416L316.01 69.6416Z" fill="#3F3D56"/>
<path d="M162.675 94.4196C167.624 83.1359 165.575 71.4072 158.098 68.2233C150.621 65.0394 140.551 71.6056 135.601 82.894C133.559 87.3758 132.665 92.2861 132.993 97.214L112.651 145.291L136.337 154.478L153.876 106.107C157.744 102.965 160.761 98.9576 162.675 94.4196V94.4196V94.4196Z" fill="#FFB6B6"/>
<path d="M18.4557 116.421L18.4557 116.421C5.85288 128.587 6.89118 149.08 20.6591 159.909L88.081 212.942C95.4392 218.73 106.233 216.528 110.737 208.321C127.956 179.698 129.351 183.59 139.212 154.347L112.658 137.606L96.2377 159.633L60.3333 118.269C49.4821 105.768 30.3657 104.924 18.4557 116.421H18.4557V116.421Z" fill="white"/>
<path d="M65.117 81.1543L71.9868 86.076C71.9868 86.076 74.0084 64.6256 76.7976 63.6737C79.5868 62.7218 83.3501 67.6656 83.3501 67.6656L86.0983 75.7184L95.1858 71.9305C95.1858 71.9305 105.708 66.2634 109.427 64.9942C113.146 63.7251 112.582 52.9487 112.582 52.9487C112.582 52.9487 157.227 59.0612 150.519 33.3239C150.519 33.3239 148.21 14.3898 143.266 18.153C138.322 21.9163 138.256 12.5968 138.256 12.5968L127.055 10.1914C127.055 10.1914 111.684 -10.5136 81.3647 7.10001C51.0451 24.7136 65.1171 81.1543 65.1171 81.1543L65.117 81.1543V81.1543Z" fill="#2F2E41"/>
</svg>
