<svg xmlns="http://www.w3.org/2000/svg" viewBox="0 0 514.72 122.73"><defs><style>.cls-1{fill:#373083;}</style></defs><g id="Capa_2" data-name="Capa 2"><g id="Capa_1-2" data-name="Capa 1"><path class="cls-1" d="M171.84,122.72V45.88h14.94v23.7l-1.44-5.74a26.34,26.34,0,0,1,5.39-9.91,29.17,29.17,0,0,1,8.76-7,21.89,21.89,0,0,1,10.27-2.59,25.18,25.18,0,0,1,4.67.43,17.17,17.17,0,0,1,3.52,1l-3.88,16.09a24.7,24.7,0,0,0-3.81-1.22,17.15,17.15,0,0,0-4.09-.51,18.69,18.69,0,0,0-7.4,1.51,19.55,19.55,0,0,0-6.17,4.17A20.38,20.38,0,0,0,188.36,72a18.47,18.47,0,0,0-1.58,7.69v43.08Z"/><path class="cls-1" d="M255.59,122.73a29.84,29.84,0,0,1-17-5.17,37.15,37.15,0,0,1-12.28-14.08,43.23,43.23,0,0,1-4.59-20.11,42.57,42.57,0,0,1,4.66-20.18A35.84,35.84,0,0,1,239,49.33a32.87,32.87,0,0,1,17.89-5A32.14,32.14,0,0,1,267.65,46a26.86,26.86,0,0,1,8.55,4.81,27.61,27.61,0,0,1,6,7.11,22.33,22.33,0,0,1,2.95,8.62l-3.31-1.15V45.88h14.94v76.84H281.87V103.34l3.45-1a20.39,20.39,0,0,1-3.52,7.54,28.22,28.22,0,0,1-6.75,6.53A36.54,36.54,0,0,1,266,121,31.45,31.45,0,0,1,255.59,122.73Zm3.87-13.64a21.64,21.64,0,0,0,11.93-3.31,22.68,22.68,0,0,0,8.11-9.12,29.08,29.08,0,0,0,2.95-13.29A28.3,28.3,0,0,0,279.5,70.3a22.88,22.88,0,0,0-8.11-9A21.71,21.71,0,0,0,259.46,58a21.06,21.06,0,0,0-11.7,3.3,23.19,23.19,0,0,0-8,9,28.29,28.29,0,0,0-2.94,13.07,29.07,29.07,0,0,0,2.94,13.29,23,23,0,0,0,8,9.12A21,21,0,0,0,259.46,109.09Z"/><path class="cls-1" d="M327.12,33.49q-4.74,0-7.32-2.45a9,9,0,0,1-2.59-6.89,9,9,0,0,1,2.66-6.75,9.93,9.93,0,0,1,7.25-2.59c3.16,0,5.6.82,7.33,2.44a9,9,0,0,1,2.58,6.9,9,9,0,0,1-2.65,6.75A10,10,0,0,1,327.12,33.49Zm-7.18,89.23V45.88h14.8v76.84Z"/><path class="cls-1" d="M357.72,122.72V14.81h14.8V122.72Z"/><path class="cls-1" d="M418.63,122.73a42.58,42.58,0,0,1-17.1-3.3,31.7,31.7,0,0,1-12.64-9.77L399,101a26.35,26.35,0,0,0,9.4,7.26,28.73,28.73,0,0,0,11.57,2.22,17.26,17.26,0,0,0,4.81-.64,11.59,11.59,0,0,0,3.88-1.94,8.56,8.56,0,0,0,2.51-3.09,8.93,8.93,0,0,0,.86-3.95,7.52,7.52,0,0,0-2.72-6,23.09,23.09,0,0,0-4.53-2.23,74.39,74.39,0,0,0-8-2.51,67.08,67.08,0,0,1-13.65-4.89,25.94,25.94,0,0,1-8.19-6.18,18.31,18.31,0,0,1-3.16-6,23.82,23.82,0,0,1-1-7.11,18.34,18.34,0,0,1,2.08-8.69,21.82,21.82,0,0,1,5.75-6.89,26.52,26.52,0,0,1,8.62-4.53,34.61,34.61,0,0,1,10.55-1.58,39.76,39.76,0,0,1,10.56,1.44A37.68,37.68,0,0,1,438,49.9a29,29,0,0,1,7.47,6.47L437,65.71a35.83,35.83,0,0,0-6-4.82,31,31,0,0,0-6.54-3.23,18.65,18.65,0,0,0-6-1.15,24.07,24.07,0,0,0-5.46.58,11.68,11.68,0,0,0-4.09,1.72,7.59,7.59,0,0,0-2.51,2.87,8.48,8.48,0,0,0-.87,3.88,9.83,9.83,0,0,0,.94,3.52,7.76,7.76,0,0,0,2.22,2.8,23.56,23.56,0,0,0,4.74,2.44,54.41,54.41,0,0,0,8.05,2.45,67.19,67.19,0,0,1,11.85,4.09,24.88,24.88,0,0,1,7.4,5.1,15,15,0,0,1,4,6.32,26.5,26.5,0,0,1,1.15,8,19.36,19.36,0,0,1-3.66,11.57,24.63,24.63,0,0,1-9.85,8A32.33,32.33,0,0,1,418.63,122.73Z"/><path class="cls-1" d="M487.43,122.73a42.53,42.53,0,0,1-17.09-3.3,31.7,31.7,0,0,1-12.64-9.77L467.75,101a26.38,26.38,0,0,0,9.41,7.26,28.68,28.68,0,0,0,11.56,2.22,17.28,17.28,0,0,0,4.82-.64,11.54,11.54,0,0,0,3.87-1.94,8.69,8.69,0,0,0,2.52-3.09,9.07,9.07,0,0,0,.86-3.95,7.49,7.49,0,0,0-2.73-6,23.24,23.24,0,0,0-4.52-2.23,73.93,73.93,0,0,0-8-2.51,67.19,67.19,0,0,1-13.64-4.89,25.71,25.71,0,0,1-8.19-6.18,18.13,18.13,0,0,1-3.16-6,23.81,23.81,0,0,1-1-7.11,18.35,18.35,0,0,1,2.09-8.69,21.79,21.79,0,0,1,5.74-6.89A26.62,26.62,0,0,1,476,45.88a34.63,34.63,0,0,1,10.56-1.58,39.76,39.76,0,0,1,10.56,1.44,37.77,37.77,0,0,1,9.69,4.16,28.88,28.88,0,0,1,7.47,6.47l-8.47,9.34a36.25,36.25,0,0,0-6-4.82,31.5,31.5,0,0,0-6.54-3.23,18.7,18.7,0,0,0-6-1.15,24.07,24.07,0,0,0-5.46.58,11.6,11.6,0,0,0-4.09,1.72,7.53,7.53,0,0,0-2.52,2.87,8.61,8.61,0,0,0-.86,3.88,9.82,9.82,0,0,0,.93,3.52,7.89,7.89,0,0,0,2.23,2.8,23,23,0,0,0,4.74,2.44,54.23,54.23,0,0,0,8,2.45,67.62,67.62,0,0,1,11.86,4.09,25,25,0,0,1,7.39,5.1,14.79,14.79,0,0,1,4,6.32,26.2,26.2,0,0,1,1.15,8,19.36,19.36,0,0,1-3.66,11.57,24.53,24.53,0,0,1-9.84,8A32.38,32.38,0,0,1,487.43,122.73Z"/><polygon class="cls-1" points="136.07 20.74 136.07 0 120.56 0 120.56 20.74 120.56 22.51 120.56 35.68 120.56 52.52 120.56 122.72 136.07 122.72 136.07 35.68 165.09 35.68 165.09 20.74 136.07 20.74"/><path class="cls-1" d="M99,28.28A29.74,29.74,0,0,1,76.06,60.61a20.37,20.37,0,0,0-3,.52l0,0A19.82,19.82,0,0,0,58.19,80.33a17.78,17.78,0,0,0,.22,2.85,18.42,18.42,0,0,0,.67,3v0a28.72,28.72,0,0,1,.4,4.86A29.74,29.74,0,1,1,24.06,61.9c.38,0,.77-.11,1.16-.2A19.84,19.84,0,0,0,40.86,42.32a19.26,19.26,0,0,0-.27-3.25.42.42,0,0,0,0-.12,14,14,0,0,0-.41-1.86A29.75,29.75,0,1,1,99,28.28Z"/></g></g></svg>